<svg xmlns="http://www.w3.org/2000/svg" width="1597" height="985" viewBox="0 0 1597 985">
  <style>
    .mast{font:500 42px -apple-system,BlinkMacSystemFont,"Helvetica Neue",Arial,sans-serif;letter-spacing:12px;fill:#201A1B}
    .title{font:500 27px -apple-system,BlinkMacSystemFont,"Helvetica Neue",Arial,sans-serif;letter-spacing:3px;fill:#201A1B}
    .section{font:600 18px -apple-system,BlinkMacSystemFont,"Helvetica Neue",Arial,sans-serif;letter-spacing:2px;fill:#201A1B}
    .role{font:600 13px -apple-system,BlinkMacSystemFont,"Helvetica Neue",Arial,sans-serif;fill:#201A1B}
    .meta{font:500 12px -apple-system,BlinkMacSystemFont,"Helvetica Neue",Arial,sans-serif;letter-spacing:.5px;fill:#524344}
    .body{font:500 15px -apple-system,BlinkMacSystemFont,"Helvetica Neue",Arial,sans-serif;fill:#201A1B}
    .small{font:500 13px -apple-system,BlinkMacSystemFont,"Helvetica Neue",Arial,sans-serif;letter-spacing:1px;fill:#524344}
    .foot{font:500 14px -apple-system,BlinkMacSystemFont,"Helvetica Neue",Arial,sans-serif;letter-spacing:2px;fill:#201A1B}
  </style>
  <rect x="0" y="0" width="1597" height="985" rx="0" fill="#FFF8F7" />
  <text x="30" y="60" class="mast" text-anchor="start">RESONOTE</text>
  <text x="1545" y="53" class="title" text-anchor="end">01F / SURFACE HIERARCHY</text>
  <text x="1545" y="78" class="small" text-anchor="end">DERIVED FROM 01D / 01E · NOT A SECOND SOURCE</text>
  <line x1="30" y1="96" x2="1567" y2="96" stroke="#847374" stroke-width="1"/>
  <text x="32" y="142" class="section" text-anchor="start">LIGHT</text><rect x="32" y="162" width="360" height="82" rx="2" fill="#FFF8F7" stroke="#847374" stroke-opacity=".3"/><text x="36" y="266" class="role" text-anchor="start">surface</text><text x="36" y="285" class="meta" text-anchor="start">T98 · #FFF8F7</text><rect x="416" y="162" width="360" height="82" rx="2" fill="#E3D7D7" stroke="#847374" stroke-opacity=".3"/><text x="420" y="266" class="role" text-anchor="start">surfaceDim</text><text x="420" y="285" class="meta" text-anchor="start">T87 · #E3D7D7</text><rect x="800" y="162" width="360" height="82" rx="2" fill="#FFF8F7" stroke="#847374" stroke-opacity=".3"/><text x="804" y="266" class="role" text-anchor="start">surfaceBright</text><text x="804" y="285" class="meta" text-anchor="start">T98 · #FFF8F7</text><rect x="1184" y="162" width="360" height="82" rx="2" fill="#FFFFFF" stroke="#847374" stroke-opacity=".3"/><text x="1188" y="266" class="role" text-anchor="start">surfaceContainerLowest</text><text x="1188" y="285" class="meta" text-anchor="start">T100 · #FFFFFF</text><rect x="32" y="310" width="360" height="82" rx="2" fill="#FEF1F1" stroke="#847374" stroke-opacity=".3"/><text x="36" y="414" class="role" text-anchor="start">surfaceContainerLow</text><text x="36" y="433" class="meta" text-anchor="start">T96 · #FEF1F1</text><rect x="416" y="310" width="360" height="82" rx="2" fill="#F8EBEB" stroke="#847374" stroke-opacity=".3"/><text x="420" y="414" class="role" text-anchor="start">surfaceContainer</text><text x="420" y="433" class="meta" text-anchor="start">T94 · #F8EBEB</text><rect x="800" y="310" width="360" height="82" rx="2" fill="#F2E5E5" stroke="#847374" stroke-opacity=".3"/><text x="804" y="414" class="role" text-anchor="start">surfaceContainerHigh</text><text x="804" y="433" class="meta" text-anchor="start">T92 · #F2E5E5</text><rect x="1184" y="310" width="360" height="82" rx="2" fill="#ECE0E0" stroke="#847374" stroke-opacity=".3"/><text x="1188" y="414" class="role" text-anchor="start">surfaceContainerHighest</text><text x="1188" y="433" class="meta" text-anchor="start">T90 · #ECE0E0</text><text x="32" y="492" class="section" text-anchor="start">DARK</text><rect x="32" y="512" width="360" height="82" rx="2" fill="#181212" stroke="#847374" stroke-opacity=".3"/><text x="36" y="616" class="role" text-anchor="start">surface</text><text x="36" y="635" class="meta" text-anchor="start">T6 · #181212</text><rect x="416" y="512" width="360" height="82" rx="2" fill="#181212" stroke="#847374" stroke-opacity=".3"/><text x="420" y="616" class="role" text-anchor="start">surfaceDim</text><text x="420" y="635" class="meta" text-anchor="start">T6 · #181212</text><rect x="800" y="512" width="360" height="82" rx="2" fill="#3F3738" stroke="#847374" stroke-opacity=".3"/><text x="804" y="616" class="role" text-anchor="start">surfaceBright</text><text x="804" y="635" class="meta" text-anchor="start">T24 · #3F3738</text><rect x="1184" y="512" width="360" height="82" rx="2" fill="#120D0D" stroke="#847374" stroke-opacity=".3"/><text x="1188" y="616" class="role" text-anchor="start">surfaceContainerLowest</text><text x="1188" y="635" class="meta" text-anchor="start">T4 · #120D0D</text><rect x="32" y="660" width="360" height="82" rx="2" fill="#201A1B" stroke="#847374" stroke-opacity=".3"/><text x="36" y="764" class="role" text-anchor="start">surfaceContainerLow</text><text x="36" y="783" class="meta" text-anchor="start">T10 · #201A1B</text><rect x="416" y="660" width="360" height="82" rx="2" fill="#241E1F" stroke="#847374" stroke-opacity=".3"/><text x="420" y="764" class="role" text-anchor="start">surfaceContainer</text><text x="420" y="783" class="meta" text-anchor="start">T12 · #241E1F</text><rect x="800" y="660" width="360" height="82" rx="2" fill="#2F2829" stroke="#847374" stroke-opacity=".3"/><text x="804" y="764" class="role" text-anchor="start">surfaceContainerHigh</text><text x="804" y="783" class="meta" text-anchor="start">T17 · #2F2829</text><rect x="1184" y="660" width="360" height="82" rx="2" fill="#3A3334" stroke="#847374" stroke-opacity=".3"/><text x="1188" y="764" class="role" text-anchor="start">surfaceContainerHighest</text><text x="1188" y="783" class="meta" text-anchor="start">T22 · #3A3334</text>
  <line x1="30" y1="910" x2="1567" y2="910" stroke="#847374" stroke-width="1"/>
  <text x="35" y="946" class="foot" text-anchor="start">RESONOTE DESIGN SYSTEM</text>
  <text x="1565" y="946" class="foot" text-anchor="end">MARKDOWN IS THE NORMATIVE SOURCE</text>
  </svg>